<svg width="142" height="21" viewBox="0 0 142 21" fill="none" xmlns="http://www.w3.org/2000/svg">
<path fill-rule="evenodd" clip-rule="evenodd" d="M12.7726 0.0146572C6.71294 0.344266 2.63329 3.10568 0.868829 8.07202C0.477073 9.17466 0.192024 10.4588 0.0388092 11.8113C-0.0188563 12.3205 -0.0105082 13.9116 0.0522268 14.3669C0.405989 16.9332 1.6584 18.712 3.88722 19.8136C5.07899 20.4026 6.43516 20.7512 8.26792 20.9396C8.63783 20.9777 9.1088 20.9867 11.1953 20.9961C13.0923 21.0046 13.6818 20.9998 13.6818 20.9757C13.6818 20.9584 13.8003 20.2982 13.9451 19.5087C14.372 17.1813 14.5636 16.1343 14.6071 15.8922C14.6891 15.4352 14.7308 15.2086 14.7435 15.1513L14.7565 15.0927L12.4627 15.0826C10.5111 15.074 10.1135 15.0657 9.79704 15.027C7.77238 14.7791 6.84067 14.0842 6.58138 12.6286C6.52074 12.2882 6.52242 11.5025 6.58474 11.0486C6.99565 8.05599 8.21392 6.57146 10.647 6.09846C11.4855 5.93547 11.6049 5.92926 14.1277 5.91764L16.4334 5.90705L16.4489 5.83522C16.4763 5.70822 17.5115 0.0418195 17.5115 0.018752C17.5115 -0.00131837 13.1358 -0.005092 12.7726 0.0146572ZM19.9636 0.0242922C19.9636 0.041633 19.8451 0.701786 19.7003 1.4913C19.2734 3.81874 19.0818 4.86572 19.0383 5.10776C18.9563 5.56478 18.9146 5.79144 18.9019 5.84871L18.8889 5.90726L21.1827 5.91738C23.1343 5.92597 23.5319 5.93426 23.8484 5.97301C25.873 6.22089 26.8047 6.91581 27.064 8.37142C27.1247 8.71176 27.123 9.4975 27.0607 9.95141C26.6498 12.944 25.4315 14.4285 22.9984 14.9015C22.1599 15.0645 22.0405 15.0707 19.5177 15.0824L17.212 15.093L17.1965 15.1648C17.1676 15.2984 16.1339 20.9588 16.1339 20.9831C16.1339 20.9974 17.1532 21.0027 18.6204 20.9961C21.2912 20.9841 21.3442 20.9818 22.4955 20.8278C26.4279 20.3016 29.429 18.5985 31.3337 15.812C32.5445 14.0407 33.3094 11.8116 33.6066 9.18874C33.6643 8.67948 33.6559 7.08836 33.5932 6.63311C33.2394 4.06676 31.987 2.28801 29.7582 1.18642C28.5664 0.597395 27.2102 0.248785 25.3775 0.0603643C25.0076 0.0223377 24.5366 0.0132663 22.4501 0.00390012C20.5531 -0.00460971 19.9636 0.000207811 19.9636 0.0242922ZM10.9649 7.78357C10.2994 7.87927 9.61905 8.39855 9.35285 9.01394C9.22934 9.2995 8.75008 11.6449 8.75008 11.9639C8.75008 12.5511 9.0986 13.0106 9.67306 13.1806C9.83112 13.2274 10.1106 13.2296 16.0375 13.2296C22.7298 13.2296 22.3362 13.2378 22.7035 13.0898C23.2643 12.8638 23.7303 12.3816 23.9133 11.838C23.9638 11.6878 24.4376 9.4051 24.4663 9.17362C24.5092 8.8275 24.371 8.4281 24.1187 8.16903C23.9514 7.9972 23.8074 7.90841 23.565 7.82754L23.3938 7.77043L17.2497 7.76687C13.8705 7.76492 11.0423 7.77244 10.9649 7.78357Z" fill="#EBBE7D"/>
<path d="M49.813 17.2461C45.431 17.2461 43.2147 15.2469 43.8068 11.0637C44.399 6.88052 47.1737 4.86452 51.5556 4.86452C52.2324 4.86452 53.1122 4.89812 53.7889 4.94852L53.2814 8.49332C52.5877 8.42612 51.7587 8.37572 51.065 8.37572C48.9501 8.37572 47.8335 8.93012 47.529 11.0637C47.2413 13.1973 48.1888 13.7349 50.3036 13.7349C50.9973 13.7349 51.9109 13.6677 52.6046 13.6005L52.114 17.1453C51.4203 17.1957 50.4897 17.2461 49.813 17.2461Z" fill="#FCFCFC"/>
<path d="M54.7674 16.9941L56.4424 5.13332H60.0969L58.8956 13.6341H63.2945L62.8208 16.9941H54.7674Z" fill="#FCFCFC"/>
<path d="M64.9043 16.9941L66.5793 5.13332H70.2338L68.5588 16.9941H64.9043Z" fill="#FCFCFC"/>
<path d="M77.809 17.2461C73.427 17.2461 71.2107 15.2469 71.8028 11.0637C72.395 6.88052 75.1697 4.86452 79.5517 4.86452C80.2284 4.86452 81.1082 4.89812 81.785 4.94852L81.2774 8.49332C80.5837 8.42612 79.7547 8.37572 79.061 8.37572C76.9462 8.37572 75.8295 8.93012 75.525 11.0637C75.2374 13.1973 76.1848 13.7349 78.2997 13.7349C78.9933 13.7349 79.907 13.6677 80.6006 13.6005L80.11 17.1453C79.4163 17.1957 78.4858 17.2461 77.809 17.2461Z" fill="#FCFCFC"/>
<path d="M90.3262 16.9941L87.7714 12.5085H87.0439L86.4179 16.9941H82.7635L84.4384 5.13332H88.0929L87.4838 9.38372H88.1775L92.0011 5.13332H96.1801L90.8845 10.8789L94.5051 16.9941H90.3262Z" fill="#FCFCFC"/>
<path d="M96.614 8.74532C97.0201 5.80532 99.7102 4.88132 103.28 4.86452C103.974 4.86452 105.581 4.88132 106.241 4.93172L105.733 8.51012C105.09 8.44292 103.517 8.34212 102.84 8.34212C101.402 8.34212 100.607 8.42612 100.539 8.94692C100.455 9.53492 101.673 9.58532 102.823 9.82052C104.363 10.1397 106.461 10.8789 106.122 13.2477C105.733 16.0533 103.585 17.2125 98.9827 17.2293C98.1198 17.2293 96.208 17.1453 95.6327 16.9773L96.1403 13.3989C96.8847 13.5837 98.6274 13.7517 99.5748 13.7517C101.317 13.7517 102.096 13.6845 102.18 13.1637C102.282 12.4749 100.658 12.5085 99.2872 12.1725C97.9337 11.8533 96.2926 11.0301 96.614 8.74532Z" fill="#FCFCFC"/>
<path d="M119.518 9.28292C119.129 12.0549 117.267 13.4325 113.224 13.4325H111.989L111.498 16.9941H107.844L109.519 5.13332H114.391C118.401 5.13332 119.924 6.51092 119.518 9.28292ZM115.795 9.29972C115.897 8.64452 115.525 8.47652 114.053 8.47652H112.699L112.462 10.1397H113.816C115.288 10.1397 115.711 9.95492 115.795 9.29972Z" fill="#FCFCFC"/>
<path d="M120.575 16.9941L122.25 5.13332H125.904L124.229 16.9941H120.575Z" fill="#FCFCFC"/>
<path d="M134.545 16.9941L132.109 9.36692L131.026 16.9941H127.405L129.08 5.13332H134.274L136.711 12.7773L137.794 5.13332H141.414L139.739 16.9941H134.545Z" fill="#FCFCFC"/>
</svg>
