<?xml version="1.0" standalone="no"?>
<!DOCTYPE svg PUBLIC "-//W3C//DTD SVG 20010904//EN"
 "http://www.w3.org/TR/2001/REC-SVG-20010904/DTD/svg10.dtd">
<svg version="1.0" xmlns="http://www.w3.org/2000/svg"
 width="896.000000pt" height="896.000000pt" viewBox="0 0 896.000000 896.000000"
 preserveAspectRatio="xMidYMid meet">
<metadata>
Created by potrace 1.14, written by Peter Selinger 2001-2017
</metadata>
<g transform="translate(0.000000,896.000000) scale(0.100000,-0.100000)"
fill="#000000" stroke="none">
<path d="M3308 7275 c-2 -2 -34 -6 -73 -9 -38 -4 -92 -9 -120 -11 -27 -3 -68
-7 -90 -9 -22 -2 -51 -7 -65 -10 -14 -3 -45 -8 -70 -11 -25 -3 -56 -7 -70 -10
-14 -3 -38 -7 -55 -9 -49 -7 -346 -74 -405 -93 -30 -9 -57 -17 -60 -18 -76
-21 -98 -27 -115 -35 -11 -5 -42 -16 -69 -25 -114 -37 -469 -195 -486 -216 -3
-4 -25 -17 -50 -29 -46 -23 -291 -182 -313 -204 -6 -6 -32 -27 -57 -46 -151
-117 -329 -294 -458 -455 -4 -5 -21 -28 -37 -50 -17 -22 -33 -42 -36 -45 -7
-6 -127 -187 -154 -232 -48 -81 -106 -185 -115 -207 -6 -13 -26 -55 -45 -92
-19 -38 -32 -69 -28 -69 3 0 1 -6 -5 -12 -6 -7 -23 -47 -40 -88 -16 -41 -33
-84 -37 -95 -4 -11 -9 -24 -11 -30 -2 -5 -15 -44 -29 -85 -15 -41 -28 -83 -30
-93 -2 -9 -6 -21 -9 -25 -3 -5 -7 -19 -10 -33 -3 -13 -14 -54 -25 -92 -11 -37
-20 -70 -20 -72 -1 -3 -1 -6 -2 -7 -1 -4 0 -1 -38 -183 -28 -137 -34 -169 -46
-260 -2 -16 -6 -48 -10 -70 -3 -22 -9 -62 -13 -90 -9 -64 -9 -623 1 -695 3
-30 9 -68 12 -85 5 -31 17 -96 20 -105 0 -3 5 -23 10 -45 5 -22 9 -42 10 -45
1 -3 7 -25 14 -50 45 -161 134 -369 192 -452 11 -14 19 -29 19 -33 0 -3 32
-50 72 -103 68 -92 219 -251 283 -299 17 -13 48 -37 70 -54 111 -87 276 -180
445 -251 83 -36 213 -84 250 -93 3 -1 12 -4 20 -8 18 -7 252 -64 295 -72 109
-20 195 -35 225 -39 19 -2 51 -7 70 -10 19 -3 60 -8 90 -11 30 -3 80 -9 110
-12 30 -4 358 -7 729 -7 592 -1 674 1 677 14 1 8 7 44 13 80 6 36 13 76 16 90
3 14 8 40 11 59 3 18 8 43 10 55 8 37 17 100 18 119 0 9 4 17 9 17 4 0 6 4 3
8 -3 4 -1 26 4 48 5 21 12 55 15 74 10 58 17 104 22 125 2 11 6 36 9 55 3 19
7 42 9 50 3 8 7 33 11 55 3 22 10 60 15 85 5 25 11 59 14 75 2 17 7 41 10 55
2 14 7 39 10 55 3 17 7 41 10 55 5 24 13 71 20 115 2 11 8 45 13 75 6 30 13
71 17 90 3 19 10 52 14 73 5 20 6 37 2 38 -3 1 -206 3 -451 5 -467 3 -824 11
-875 19 -29 4 -67 10 -122 20 -16 2 -50 9 -78 15 -27 7 -54 12 -60 13 -5 2
-16 6 -23 10 -6 5 -12 5 -12 1 0 -3 -6 -2 -12 3 -7 6 -26 13 -41 17 -33 8
-156 66 -207 98 -35 22 -118 102 -153 146 -39 50 -95 178 -114 262 -14 61 -18
127 -17 275 2 187 5 217 41 385 37 176 37 176 45 200 3 8 18 52 32 98 40 124
141 329 168 340 4 2 8 8 8 14 0 26 145 183 225 243 22 17 46 36 53 42 7 7 24
16 38 19 13 3 24 9 24 14 0 16 261 125 325 135 21 4 57 12 65 15 3 1 10 3 15
4 6 1 28 6 50 10 53 11 73 15 170 31 51 8 410 16 893 18 401 2 463 4 466 17 2
8 7 33 11 55 9 53 30 169 69 380 3 17 8 44 11 60 3 17 10 53 15 80 5 28 12 64
15 80 3 17 6 39 9 50 2 11 6 36 10 55 3 19 9 46 12 60 2 14 7 41 8 60 2 19 6
42 9 50 3 8 10 44 16 80 15 86 19 110 26 140 3 14 7 39 10 55 2 17 6 39 8 50
4 20 11 59 21 120 3 17 12 63 19 103 8 40 11 74 8 77 -8 4 -1318 4 -1323 0z"/>
<path d="M5287 7273 c-3 -4 -8 -28 -11 -53 -6 -47 -11 -75 -22 -125 -4 -16 -8
-41 -10 -55 -1 -14 -5 -38 -9 -55 -3 -16 -12 -66 -20 -110 -8 -44 -17 -89 -19
-100 -2 -11 -7 -40 -11 -65 -4 -25 -9 -54 -12 -65 -2 -11 -6 -31 -8 -45 -2
-14 -6 -36 -9 -50 -3 -14 -12 -63 -20 -110 -8 -47 -17 -96 -20 -109 -3 -12 -8
-42 -11 -65 -3 -22 -9 -59 -14 -81 -6 -22 -10 -41 -11 -42 0 -2 0 -4 -1 -5 0
-2 -2 -14 -4 -28 -2 -14 -16 -90 -30 -170 -14 -80 -28 -158 -31 -175 -3 -16
-7 -36 -9 -42 -2 -7 -1 -14 3 -14 4 -1 194 -3 422 -5 502 -3 876 -11 910 -18
60 -13 77 -16 113 -21 21 -2 79 -15 130 -29 327 -87 497 -244 567 -521 20 -75
23 -117 24 -255 1 -150 -5 -232 -19 -300 -3 -14 -7 -38 -10 -55 -6 -40 -14
-84 -21 -115 -3 -14 -7 -32 -9 -40 -2 -8 -8 -35 -15 -60 -7 -25 -13 -52 -15
-60 -8 -40 -90 -248 -122 -308 -90 -170 -216 -314 -354 -407 -46 -30 -88 -59
-94 -63 -16 -12 -175 -78 -230 -95 -94 -30 -217 -57 -325 -73 -8 -1 -33 -5
-55 -8 -65 -10 -347 -16 -863 -19 -419 -2 -483 -4 -487 -17 -2 -8 -14 -69 -25
-135 -12 -66 -24 -123 -26 -126 -2 -4 -6 -26 -8 -50 -3 -24 -8 -55 -11 -69 -6
-32 -24 -126 -30 -165 -4 -27 -14 -77 -21 -113 -1 -8 -8 -46 -15 -85 -7 -40
-13 -74 -14 -77 -1 -3 -5 -27 -10 -55 -5 -27 -10 -52 -10 -55 -1 -3 -5 -25 -9
-50 -5 -25 -10 -54 -12 -65 -4 -21 -61 -333 -68 -375 -3 -14 -7 -41 -10 -61
-3 -20 -8 -43 -12 -52 -4 -11 1 -18 19 -22 27 -7 1328 1 1397 9 190 21 225 25
259 31 14 2 44 7 66 10 90 11 116 16 255 45 80 17 152 33 160 35 8 2 39 11 68
19 28 8 52 12 52 10 0 -3 9 0 21 6 11 6 28 13 38 15 78 15 379 131 524 202 59
29 112 53 117 53 4 0 10 3 12 8 3 6 20 17 123 73 22 12 42 24 45 28 8 10 43
31 62 37 9 3 19 12 22 20 3 8 10 14 16 14 9 0 152 101 170 120 3 3 27 23 55
45 56 45 53 43 156 141 130 126 246 260 344 399 27 39 52 72 55 75 3 3 12 16
19 30 8 14 40 66 70 115 62 103 186 356 224 460 15 39 32 84 38 100 7 17 13
35 15 40 1 6 12 37 23 70 12 33 23 67 25 75 2 8 16 56 31 105 14 50 28 101 31
115 3 14 11 52 19 85 24 104 43 198 51 255 4 30 8 57 9 60 1 3 5 28 9 55 4 28
10 61 12 75 26 163 25 733 -1 865 -30 148 -38 187 -53 235 -9 30 -16 57 -17
60 -5 29 -86 242 -95 250 -3 3 -22 39 -43 80 -21 41 -46 87 -55 101 -9 15 -26
41 -37 58 -10 17 -23 31 -27 31 -4 0 -8 5 -8 11 0 29 -216 254 -319 333 -259
197 -530 322 -916 422 -11 3 -33 7 -48 10 -16 2 -32 6 -36 8 -4 3 -49 12 -101
22 -101 17 -109 19 -180 29 -46 7 -54 8 -150 19 -30 4 -71 9 -90 12 -59 9
-1418 15 -1423 7z"/>
<path d="M2820 5183 c-131 -48 -253 -146 -314 -253 -17 -30 -31 -57 -32 -60 0
-3 -6 -25 -13 -50 -7 -25 -15 -52 -16 -60 -2 -8 -13 -55 -25 -104 -11 -50 -23
-105 -26 -124 -9 -55 -13 -72 -18 -80 -2 -4 -7 -30 -10 -57 -4 -27 -8 -57 -11
-65 -6 -20 -14 -65 -21 -115 -3 -22 -9 -57 -14 -77 -5 -23 -4 -40 3 -47 8 -8
8 -11 -1 -11 -6 0 -9 -6 -7 -12 2 -7 6 -24 9 -38 8 -48 29 -110 38 -110 4 0 8
-6 8 -14 0 -33 126 -125 196 -142 39 -10 3272 -10 3349 -1 33 4 64 12 69 17 6
6 17 10 25 10 19 0 161 89 161 101 0 5 6 9 13 9 26 1 140 174 151 231 2 13 13
62 24 109 11 47 23 102 26 124 4 21 8 42 11 46 2 3 7 22 10 41 3 19 10 54 15
79 5 25 12 56 14 70 12 69 47 233 52 241 3 5 2 9 -3 9 -4 0 -9 24 -9 53 -1 35
-10 71 -28 107 -45 92 -101 142 -199 178 l-57 22 -1653 -2 -1652 -1 -65 -24z"/>
</g>
</svg>
